<svg width="64" height="64" viewBox="0 0 64 64" fill="none" xmlns="http://www.w3.org/2000/svg">
<rect width="64" height="64" rx="32" fill="#F4F5F7"/>
<path d="M43 26V22C43 21.7348 42.8946 21.4804 42.7071 21.2929C42.5196 21.1054 42.2652 21 42 21H22C21.7348 21 21.4804 21.1054 21.2929 21.2929C21.1054 21.4804 21 21.7348 21 22V26H43Z" fill="#2EC5CE"/>
<path d="M21 28V42C21 42.2652 21.1054 42.5196 21.2929 42.7071C21.4804 42.8946 21.7348 43 22 43H27V28H21Z" fill="#D6B1FF"/>
<path d="M29 43H42C42.2652 43 42.5196 42.8946 42.7071 42.7071C42.8946 42.5196 43 42.2652 43 42V28H29V43Z" fill="#8C30F5"/>
</svg>
