<svg width="64" height="64" viewBox="0 0 64 64" fill="none" xmlns="http://www.w3.org/2000/svg">
<rect width="64" height="64" rx="32" fill="#F4F5F7"/>
<path d="M41 44H32C31.7348 44 31.4804 43.8946 31.2929 43.7071C31.1054 43.5196 31 43.2652 31 43V41C31 40.7348 31.1054 40.4804 31.2929 40.2929C31.4804 40.1054 31.7348 40 32 40H41C41.2652 40 41.5196 40.1054 41.7071 40.2929C41.8946 40.4804 42 40.7348 42 41V43C42 43.2652 41.8946 43.5196 41.7071 43.7071C41.5196 43.8946 41.2652 44 41 44Z" fill="#D6B1FF"/>
<path d="M41 20H23C22.7348 20 22.4804 20.1054 22.2929 20.2929C22.1054 20.4804 22 20.7348 22 21V23C22 23.2652 22.1054 23.5196 22.2929 23.7071C22.4804 23.8946 22.7348 24 23 24H41C41.2652 24 41.5196 23.8946 41.7071 23.7071C41.8946 23.5196 42 23.2652 42 23V21C42 20.7348 41.8946 20.4804 41.7071 20.2929C41.5196 20.1054 41.2652 20 41 20Z" fill="#2EC5CE"/>
<path d="M41 26H23C22.7348 26 22.4804 26.1054 22.2929 26.2929C22.1054 26.4804 22 26.7348 22 27V37C22 37.2652 22.1054 37.5196 22.2929 37.7071C22.4804 37.8946 22.7348 38 23 38H41C41.2652 38 41.5196 37.8946 41.7071 37.7071C41.8946 37.5196 42 37.2652 42 37V27C42 26.7348 41.8946 26.4804 41.7071 26.2929C41.5196 26.1054 41.2652 26 41 26Z" fill="#8C30F5"/>
</svg>
