<svg width="21" height="22" viewBox="0 0 21 22" fill="none" xmlns="http://www.w3.org/2000/svg">
<path d="M15.3656 9.30308C15.8781 8.79051 15.8781 7.95949 15.3656 7.44692C14.853 6.93436 14.022 6.93436 13.5094 7.44692L9.1875 11.7688L7.49058 10.0719C6.97801 9.55936 6.14699 9.55936 5.63442 10.0719C5.12186 10.5845 5.12186 11.4155 5.63442 11.9281L8.25942 14.5531C8.77199 15.0656 9.60301 15.0656 10.1156 14.5531L15.3656 9.30308Z" fill="white"/>
<path fill-rule="evenodd" clip-rule="evenodd" d="M21 11C21 16.799 16.299 21.5 10.5 21.5C4.70101 21.5 0 16.799 0 11C0 5.20101 4.70101 0.5 10.5 0.5C16.299 0.5 21 5.20101 21 11ZM18.375 11C18.375 15.3492 14.8492 18.875 10.5 18.875C6.15076 18.875 2.625 15.3492 2.625 11C2.625 6.65076 6.15076 3.125 10.5 3.125C14.8492 3.125 18.375 6.65076 18.375 11Z" fill="white"/>
</svg>
