<svg width="32" height="32" viewBox="0 0 32 32" fill="none" xmlns="http://www.w3.org/2000/svg">
<path d="M24 12L24 14C24 15.1046 24.8954 16 26 16C27.1046 16 28 15.1046 28 14V11.6569C28 10.596 27.5786 9.57857 26.8284 8.82843L21.1716 3.17157C20.4214 2.42143 19.404 2 18.3431 2H6C4.89543 2 4 2.89543 4 4V28C4 29.1046 4.89543 30 6 30H12C13.1046 30 14 29.1046 14 28C14 26.8954 13.1046 26 12 26H8V6H18V10C18 11.1046 18.8954 12 20 12H24Z" fill="#868686"/>
<path d="M18 26C18 24.8954 18.8954 24 20 24H22V22C22 20.8954 22.8954 20 24 20C25.1046 20 26 20.8954 26 22V24H28C29.1046 24 30 24.8954 30 26C30 27.1046 29.1046 28 28 28H26V30C26 31.1046 25.1046 32 24 32C22.8954 32 22 31.1046 22 30V28H20C18.8954 28 18 27.1046 18 26Z" fill="#868686"/>
</svg>
