<svg width="50" height="28" viewBox="0 0 50 28" fill="none" xmlns="http://www.w3.org/2000/svg">
<g clip-path="url(#clip0)">
<path d="M9.625 8.09375C9.625 9.28437 8.63156 10.25 7.40625 10.25C6.18094 10.25 5.1875 9.28437 5.1875 8.09375C5.1875 6.90312 6.18094 5.9375 7.40625 5.9375C8.63156 5.9375 9.625 6.90312 9.625 8.09375Z" fill="#65438A"/>
<path d="M3.5625 5.8125C3.5625 6.77906 2.765 7.5625 1.78125 7.5625C0.7975 7.5625 0 6.77906 0 5.8125C0 4.84594 0.7975 4.0625 1.78125 4.0625C2.765 4.0625 3.5625 4.84594 3.5625 5.8125Z" fill="#65438A"/>
<path d="M2.78125 1C2.78125 1.26522 2.67589 1.51957 2.48836 1.70711C2.30082 1.89464 2.04647 2 1.78125 2C1.51603 2 1.26168 1.89464 1.07414 1.70711C0.886607 1.51957 0.78125 1.26522 0.78125 1C0.78125 0.734783 0.886607 0.48043 1.07414 0.292893C1.26168 0.105357 1.51603 0 1.78125 0C2.04647 0 2.30082 0.105357 2.48836 0.292893C2.67589 0.48043 2.78125 0.734783 2.78125 1Z" fill="#65438A"/>
<path d="M49.9062 5.375C49.8437 5.25 49.75 5.1875 49.625 5.1875H49.5L45 6.25C44.7812 6.3125 44.6562 6.375 44.5937 6.5C44.5312 6.625 44.4687 6.75 44.4375 6.9375L41.4687 16.4687L39.375 7.28125C39.3125 7.09375 39.25 6.9375 39.125 6.84375C39.0312 6.75 38.8125 6.71875 38.5 6.71875C38.3437 6.71875 38.1562 6.71875 37.9375 6.75C37.7187 6.78125 37.4687 6.8125 37.1875 6.84375C36.5312 6.9375 35.9687 7 35.5 7.09375C35.0312 7.15625 34.6562 7.25 34.375 7.34375C34.0937 7.4375 33.875 7.5625 33.7812 7.6875C33.6562 7.84375 33.5937 8 33.5937 8.25C33.5937 8.375 33.5937 8.5625 33.6562 8.78125L34.6875 13.25L32.125 17.5625V17.5312L32.0937 17.4687L30.3125 10.625L30.2812 10.5L29.3437 6.96875L29.1562 6.3125V6.28125L29.0312 5.78125C28.9687 5.5625 28.875 5.4375 28.7812 5.34375C28.6875 5.25 28.5 5.21875 28.2187 5.21875C28.0625 5.21875 27.8437 5.21875 27.5937 5.25C26.4687 5.375 24.125 5.71875 23.5312 5.8125C23.3438 5.875 23.1875 5.96875 23.0625 6.0625L23 6.125C22.9687 6.125 22.9687 6.15625 22.9375 6.1875C22.9062 6.21875 22.875 6.25 22.875 6.28125L22.8437 6.3125C22.8125 6.34375 22.8125 6.34375 22.8125 6.375C22.8125 6.375 22.8125 6.40625 22.7812 6.40625C22.7812 6.4375 22.75 6.46875 22.75 6.5C22.75 6.53125 22.7187 6.59375 22.7187 6.625C22.6875 6.6875 22.6875 6.78125 22.6875 6.84375V6.96875C22.6875 7 22.6875 7.03125 22.7187 7.09375C22.75 7.1875 22.7812 7.25 22.7812 7.28125L23.0312 8.15625C23.0312 8.21875 23.0625 8.25 23.0937 8.3125L23.1875 8.6875L23.2812 9.0625L23.375 9.4375C23.4062 9.5 23.4062 9.5625 23.4375 9.625L23.5625 10.0312C23.5937 10.1875 23.625 10.3125 23.6875 10.4375L23.875 11.0625C23.9375 11.2812 24 11.4687 24.0312 11.6562L24.2187 12.3437C24.2187 12.4062 24.25 12.4375 24.25 12.5L24.4062 13.0937C23.5 13.3437 22.375 13.3437 20.9375 12.8437C18.1562 11.9062 16.625 10 13.6563 9.65625C11.4063 9.375 9.75 11.0625 10.2188 12.7812C10.6875 14.5 13.0938 15.4375 16.375 15.1875C18.125 15.0625 22.1562 14.7812 25.1875 15.6875C25.1875 15.6875 28.5625 27.3125 28.6562 27.6562C28.75 28 28.9375 28.1562 29.1875 28.1562C29.3125 28.1562 29.4375 28.125 29.5625 28.0625C29.6875 28 29.8437 27.9375 30 27.8437C30.125 27.7812 30.25 27.6875 30.375 27.5937C30.4062 27.5625 30.4687 27.5312 30.5312 27.5C30.6562 27.4062 30.75 27.3125 30.875 27.2187C31.0312 27.0937 31.1875 26.9375 31.4375 26.75C31.6562 26.5625 31.9062 26.3437 32.125 26.1562C32.3437 25.9375 32.5625 25.75 32.75 25.5625C32.8125 25.5 32.875 25.4062 32.9375 25.3437L32.9687 25.3125C33.0312 25.2187 33.0937 25.1562 33.0937 25.0937C33.0937 25.0625 33.125 25.0312 33.125 25.0312V25L33.625 23.9687L33.8125 23.5937L36.3125 18.5312L38.9062 27.5937C38.9375 27.75 39.0312 27.875 39.0937 28C39.1875 28.125 39.2812 28.1875 39.4687 28.1875C39.5625 28.1875 39.7187 28.1562 39.9062 28.0625C40.4375 27.8125 40.875 27.625 41.2187 27.4687C41.5625 27.3125 41.8437 27.1875 42.0625 27.0937C42.2812 26.9687 42.4687 26.875 42.625 26.75C42.75 26.6562 42.875 26.5 43 26.3437C43.0937 26.1875 43.2187 25.9687 43.3125 25.7187C43.4062 25.4687 43.5625 25.125 43.7187 24.7187L49.9687 5.9375C49.9687 5.90625 49.9687 5.875 50 5.8125V5.6875C50 5.59375 49.9687 5.5 49.9062 5.375Z" fill="#65438A"/>
<path opacity="0.3" d="M29.2812 20.5312C29.25 19.7812 29.0937 19.1562 28.875 18.5937C28.8125 18.4375 28.75 18.3125 28.6875 18.1562C28.5 17.75 28.25 17.4063 27.9687 17.125C27.875 17.0313 27.75 16.9375 27.6562 16.8438L27.625 16.8125C27.5625 16.75 27.5 16.6875 27.4062 16.6563C27.0625 16.375 26.7187 16.1875 26.375 16.0313C26.25 15.9688 26.125 15.9063 26 15.875C25.5625 15.7188 25.2187 15.6562 25.2187 15.6562L27.9375 25.0937C28.0937 24.9062 29.4062 23.0312 29.2812 20.5312Z" fill="#163D26"/>
<path opacity="0.3" d="M25.4375 12.6562C25.5 12.625 25.5312 12.5937 25.5937 12.5625C26.1562 12.1875 26.5312 11.75 26.8437 11.25C26.8437 11.2187 26.875 11.1875 26.875 11.1875C27.0937 10.7812 27.25 10.4062 27.3437 10.0625C27.4062 9.8125 27.4375 9.59375 27.4687 9.34375C27.5 9.21875 27.5 9.09375 27.5 8.96875C27.5 8.84375 27.5 8.6875 27.5312 8.5625V8.09375C27.5 6.6875 27.0937 5.5625 27.0312 5.34375V5.3125C25.8125 5.46875 24.0625 5.71875 23.5625 5.8125C23.375 5.875 23.2187 5.96875 23.125 6.0625C23.0937 6.0625 23.0937 6.09375 23.0625 6.125C23.0312 6.125 23.0312 6.15625 23 6.1875L22.9062 6.28125C22.875 6.3125 22.875 6.34375 22.8437 6.375C22.8437 6.375 22.8437 6.40625 22.8125 6.40625C22.8125 6.4375 22.7812 6.46875 22.7812 6.5C22.7812 6.53125 22.75 6.59375 22.75 6.625C22.75 6.6875 22.7187 6.71875 22.7187 6.78125V6.90625L22.75 7.03125C22.9062 7.5625 22.9687 7.8125 23.0625 8.15625C23.0625 8.21875 23.0937 8.25 23.125 8.3125L23.2187 8.6875L23.3125 9.0625L23.4062 9.4375C23.4375 9.5 23.4375 9.5625 23.4687 9.625L23.5937 10.0312C23.625 10.1562 23.6875 10.3125 23.7187 10.4375L23.9062 11.0625C23.9687 11.2812 24.0312 11.4687 24.0625 11.6562L24.25 12.3437C24.25 12.4062 24.2812 12.4375 24.2812 12.5C24.375 12.8125 24.4375 13.0312 24.4375 13.0937C24.6562 13.0312 24.8437 12.9375 25.0312 12.875C25.0937 12.8437 25.1875 12.8125 25.25 12.7812C25.3125 12.7187 25.375 12.6875 25.4375 12.6562Z" fill="#163D26"/>
</g>
<defs>
<clipPath id="clip0">
<rect width="50" height="28.1875" fill="white"/>
</clipPath>
</defs>
</svg>
